#!OML:ASF Y:\EmotionMaleHayes\Project 1\Capture day 1\Session 1\Male1.ASF
:FULLY-SPECIFIED
:DEGREES
2032
root 9.84324 16.7035 10.4853 17.213 -59.2741 350.095
lowerback 15.3835 6.7128 -6.98886
upperback 8.10139 7.43106 -2.6765
thorax -0.44252 3.39786 -0.099399
lowerneck -22.0357 -5.71179 -2.65173
upperneck 22.7256 -8.77194 5.85254
head 11.45 -3.46067 1.14845
rclavicle -3.02153e-014 3.4191e-014
rhumerus -37.5508 17.7676 -97.1221
rradius 65.4577
rwrist -2.2985
rhand -19.0076 -45.9156
rfingers 7.12502
rthumb 7.29777 -75.7698
lclavicle -3.02153e-014 3.4191e-014
lhumerus -56.8548 -19.3493 85.6317
lradius 63.4635
lwrist 18.0507
lhand -16.6241 -16.991
lfingers 7.12502
lthumb 9.59801 12.7704
rfemur 2.4483 -7.65412 4.09411
rtibia 18.1746
rfoot -16.9672 -9.08138
rtoes -0.469183
lfemur -27.2083 8.17235 -3.97846
ltibia 36.0645
lfoot -14.8875 8.95981
ltoes -5.5287
2033
root 9.81762 16.7513 10.5841 18.0629 -59.8377 349.299
lowerback 15.2538 6.58103 -6.98512
upperback 8.06517 7.26428 -2.8349
thorax -0.384313 3.31591 -0.224954
lowerneck -21.9749 -5.54394 -2.56535
upperneck 22.5099 -8.54265 5.83193
head 11.3405 -3.36065 1.16751
rclavicle -7.39479e-014 2.78299e-014
rhumerus -38.3694 17.9969 -97.2616
rradius 65.0078
rwrist -3.11897
rhand -19.8476 -47.1036
rfingers 7.12502
rthumb 6.48693 -76.9843
lclavicle -7.39479e-014 2.78299e-014
lhumerus -56.0508 -19.6545 84.1412
lradius 63.6032
lwrist 17.2955
lhand -17.4743 -17.452
lfingers 7.12502
lthumb 8.77763 12.3455
rfemur 1.64332 -8.12496 4.86846
rtibia 18.217
rfoot -16.9295 -8.60553
rtoes 1.51262
lfemur -26.4662 8.17391 -3.81447
ltibia 35.35
lfoot -15.1783 9.33164
ltoes -4.52479
2034
root 9.80194 16.7969 10.676 19.6695 -60.5967 347.731
lowerback 14.9646 6.51068 -6.87483
upperback 8.1019 7.21779 -2.78319
thorax -0.187352 3.28902 -0.190059
lowerneck -22.2538 -5.44028 -3.19157
upperneck 22.4678 -8.30618 6.3074
head 11.4203 -3.24199 1.477
rclavicle 4.05521e-014 -2.54444e-014
rhumerus -39.1303 18.8152 -97.1618
rradius 64.6521
rwrist -4.61869
rhand -20.7877 -47.8088
rfingers 7.12502
rthumb 5.57935 -77.7153
lclavicle 4.05521e-014 -2.54444e-014
lhumerus -55.1044 -19.8654 82.8409
lradius 63.7357
lwrist 17.1115
lhand -18.6187 -17.9248
lfingers 7.12502
lthumb 7.67319 11.9159
rfemur 0.402237 -8.46004 6.09154
rtibia 18.577
rfoot -16.8158 -8.04278
rtoes 2.85221
lfemur -25.776 8.65314 -3.2653
ltibia 34.6373
lfoot -15.2661 9.80382
ltoes -4.69815
2035
root 9.77495 16.8539 10.7646 19.983 -60.6102 347.235
lowerback 15.1079 6.21974 -7.01851
upperback 8.30306 6.80817 -2.65979
thorax -0.0589495 3.06756 0.0820054
lowerneck -22.5332 -5.35028 -3.97558
upperneck 22.1618 -7.95223 6.60584
head 11.3868 -3.11076 1.76933
rclavicle 2.8625e-014 6.36111e-015
rhumerus -39.9367 19.8984 -96.9439
rradius 64.3952
rwrist -6.51996
rhand -21.2054 -47.9655
rfingers 7.12502
rthumb 5.17604 -77.8823
lclavicle 2.8625e-014 6.36111e-015
lhumerus -54.2623 -20.1575 81.6236
lradius 64.0987
lwrist 17.3344
lhand -19.8732 -18.177
lfingers 7.12502
lthumb 6.46218 11.7044
rfemur 0.189476 -9.01633 6.96625
rtibia 18.4517
rfoot -16.889 -7.87005
rtoes 4.36664
lfemur -24.8973 8.41987 -3.1341
ltibia 33.8598
lfoot -15.2473 10.0143
ltoes -5.3768
2036
root 9.7531 16.8988 10.8539 20.8785 -61.0647 346.306
lowerback 15.1187 6.22257 -6.79539
upperback 8.21816 6.82771 -2.85685
thorax -0.108995 3.08952 -0.252087
lowerneck -22.8355 -5.74817 -4.40142
upperneck 22.1936 -8.57019 7.3556
head 11.5579 -3.32197 2.00183
rclavicle -5.56597e-015 -1.74931e-014
rhumerus -41.0819 20.0601 -97.0022
rradius 64.4027
rwrist -8.67284
rhand -20.8009 -48.0124
rfingers 7.12502
rthumb 5.56662 -77.9193
lclavicle -5.56597e-015 -1.74931e-014
lhumerus -53.4818 -21.2927 80.1166
lradius 64.3213
lwrist 17.6699
lhand -20.8209 -18.4418
lfingers 7.12502
lthumb 5.54724 11.4656
rfemur -0.573556 -9.24586 7.98888
rtibia 18.5468
rfoot -16.9496 -7.95129
rtoes 4.59645
lfemur -24.0778 8.56116 -2.85405
ltibia 33.0452
lfoot -15.1266 10.3593
ltoes -6.67551
2037
root 9.73243 16.9434 10.9423 21.4787 -61.5006 345.607
lowerback 15.2575 6.12972 -6.7623
upperback 8.12003 6.68409 -3.01097
thorax -0.258046 3.0251 -0.424871
lowerneck -22.1304 -5.07701 -3.54015
upperneck 21.9015 -7.71052 6.5964
head 11.18 -2.98402 1.74116
rclavicle -2.38542e-014 4.92986e-014
rhumerus -42.4487 20.6907 -97.1781
rradius 64.7554
rwrist -11.2759
rhand -20.2437 -48.161
rfingers 7.12502
rthumb 6.10451 -78.053
lclavicle -2.38542e-014 4.92986e-014
lhumerus -52.4914 -21.9538 78.5487
lradius 64.0628
lwrist 18.0813
lhand -21.87 -18.7089
lfingers 7.12502
lthumb 4.53425 11.2225
rfemur -1.24127 -9.55299 8.84673
rtibia 18.7149
rfoot -16.9689 -8.3549
rtoes 3.88571
lfemur -23.1443 8.55534 -2.69674
ltibia 32.2075
lfoot -15.1878 10.4579
ltoes -6.15545
2038
root 9.70797 16.986 11.0291 21.5456 -61.8096 345.435
lowerback 15.3776 5.98686 -6.91196
upperback 8.1835 6.45785 -3.10037
thorax -0.24754 2.90466 -0.406522
lowerneck -22.5103 -4.9156 -3.90518
upperneck 22.0569 -7.39026 6.70884
head 11.3107 -2.84365 1.89119
rclavicle -3.49861e-014 5.725e-014
rhumerus -43.7941 21.6146 -97.2813
rradius 65.4642
rwrist -14.2891
rhand -19.981 -48.4984
rfingers 7.12502
rthumb 6.3582 -78.383
lclavicle -3.49861e-014 5.725e-014
lhumerus -51.3408 -22.5783 77.1573
lradius 63.8824
lwrist 18.7992
lhand -23.182 -18.6276
lfingers 7.12502
lthumb 3.26732 11.3272
rfemur -1.66638 -9.99737 9.4047
rtibia 18.7827
rfoot -16.8865 -8.53437
rtoes 3.93863
lfemur -22.2126 8.44418 -2.82585
ltibia 31.4199
lfoot -15.4012 10.3179
ltoes -4.74702
2039
root 9.68086 17.0236 11.1163 21.4716 -62.2132 345.472
lowerback 15.3251 5.79723 -7.24243
upperback 8.29912 6.16562 -3.23089
thorax -0.0991966 2.74191 -0.303295
lowerneck -22.0028 -4.89543 -3.9179
upperneck 21.361 -7.35005 6.83757
head 10.9596 -2.83704 1.95054
rclavicle -3.18055e-014 -2.38542e-014
rhumerus -45.0376 22.7678 -97.4674
rradius 66.1972
rwrist -17.3443
rhand -19.7587 -48.6567
rfingers 7.12502
rthumb 6.57276 -78.5347
lclavicle -3.18055e-014 -2.38542e-014
lhumerus -50.1025 -22.9039 75.6487
lradius 63.5386
lwrist 19.5953
lhand -24.5565 -18.6868
lfingers 7.12502
lthumb 1.93995 11.2841
rfemur -2.11833 -10.3803 9.80473
rtibia 18.7853
rfoot -16.8096 -8.4139
rtoes 4.70531
lfemur -21.3707 8.53615 -3.15956
ltibia 30.6344
lfoot -15.2169 10.5095
ltoes -6.52934
2040
root 9.65791 17.0588 11.1961 21.6497 -62.5924 345.304
lowerback 15.3013 5.65439 -7.42467
upperback 8.30102 5.94954 -3.37247
thorax -0.0750807 2.62855 -0.31362
lowerneck -22.3462 -4.78274 -4.2211
upperneck 21.4173 -7.1238 6.9923
head 11.0493 -2.73089 2.08996
rclavicle 3.18055e-014 2.8625e-014
rhumerus -46.3001 23.5647 -97.6444
rradius 66.8714
rwrist -20.5408
rhand -19.1036 -48.1666
rfingers 7.12502
rthumb 7.20512 -78.0239
lclavicle 3.18055e-014 2.8625e-014
lhumerus -48.6641 -23.3356 74.1133
lradius 62.6216
lwrist 20.4265
lhand -25.9719 -18.8974
lfingers 7.12502
lthumb 0.57289 11.0816
rfemur -2.73128 -10.628 10.3863
rtibia 18.8267
rfoot -16.8009 -8.44747
rtoes 6.41463
lfemur -20.7449 8.64713 -3.36539
ltibia 30.0083
lfoot -14.9351 10.898
ltoes -8.99936
2041
root 9.63726 17.0928 11.2673 21.7391 -62.902 345.217
lowerback 15.366 5.56672 -7.53721
upperback 8.17516 5.79769 -3.60534
thorax -0.221033 2.55896 -0.481779
lowerneck -21.8595 -4.5657 -3.70596
upperneck 21.0839 -6.93651 6.81005
head 10.7959 -2.6456 1.97395
rclavicle 5.88403e-014 0
rhumerus -47.7452 23.8213 -98.0037
rradius 67.6243
rwrist -23.7148
rhand -17.9312 -47.6319
rfingers 7.12502
rthumb 8.33674 -77.4474
lclavicle 5.88403e-014 0
lhumerus -47.3775 -24.3052 72.5682
lradius 61.6577
lwrist 21.3486
lhand -27.632 -18.9391
lfingers 7.12502
lthumb -1.03053 11.0382
rfemur -3.31228 -10.8045 10.9866
rtibia 18.8241
rfoot -16.6913 -8.65075
rtoes 8.23139
lfemur -20.1517 8.71533 -3.54183
ltibia 29.5039
lfoot -14.9369 10.9648
ltoes -9.82193
